# xmcd CD database file
#
# Track frame offsets:
#	150
#	13762
#	32006
#	44499
#	59538
#	69696
#	86658
#	102631
#	115566
#	128796
#	143485
#	156232
#	168990
#	180404
#
# Disc length: 2860 seconds
#
# Revision: 2
# Processed by: cddbd v1.5.2PL0 Copyright (c) Steve Scherf et al.
# Submitted via: CDex 1.51
#
DISCID=bc0b2a0e
DTITLE=Neckar Vaclav - Gold
DYEAR=2001
DGENRE=Pop
TTITLE0=Mademoiselle Gissele
TTITLE1=Vila (Cecilia)
TTITLE2=Sa-la-la-la-li (Sha-La-La-La-Lee)
TTITLE3=Tu kytaru jsem koupil kvuli tobe
TTITLE4=Svatovitsky chram (Winchester Cathedral)
TTITLE5=Stin katedral
TTITLE6=Dr. Dam di Dam
TTITLE7=Lekorice
TTITLE8=Muj bracha ma prima brachu (Ich bin verliebt in die Liebe)
TTITLE9=Specham (No Time)
TTITLE10=Carodej Dobrodej (Jennifer Juniper)
TTITLE11=Dobra zprava
TTITLE12=Massachusetts
TTITLE13=Nautilus
EXTD=YEAR: 2001
EXTT0=
EXTT1=
EXTT2=
EXTT3=
EXTT4=
EXTT5=
EXTT6=
EXTT7=
EXTT8=
EXTT9=
EXTT10=
EXTT11=
EXTT12=
EXTT13=
PLAYORDER=
